<?xml version="1.0" encoding="utf-8"?>
<!-- Generator: Adobe Illustrator 15.0.0, SVG Export Plug-In . SVG Version: 6.00 Build 0)  -->
<!DOCTYPE svg PUBLIC "-//W3C//DTD SVG 1.0//EN" "http://www.w3.org/TR/2001/REC-SVG-20010904/DTD/svg10.dtd">
<svg version="1.0" id="레이어_1" xmlns="http://www.w3.org/2000/svg" xmlns:xlink="http://www.w3.org/1999/xlink" x="0px"
	 y="0px" width="143.655px" height="33.26px" viewBox="0 0 143.655 33.26" enable-background="new 0 0 143.655 33.26"
	 xml:space="preserve">
	
	<style type="text/css">
		<![CDATA[
		#group_test{			/*텍스트 그룹영역*/
		}
		
		#group_coupon{			/*쿠폰 그룹 영역*/
		}
		
        .mul{ 					/*mul text*/
			fill:#FFFFFF;			/*체움색상*/
		}
		
		.pang{ 					/*pang text*/
			fill:#F6A60B;			/*체움색상*/
		}
		
		.coupon{ 				/*쿠폰 아이콘*/
			fill:#F6A60B;			/*체움색상*/
		}

      ]]>
	</style>  	 

<g id="group_text">	 
<path class="mul" d="M21.364,7.977L17.976,27.24c-0.056,0.28-0.308,0.42-0.56,0.42h-2.828c-0.225,0-0.336-0.196-0.336-0.448
	c0-0.027,0-0.084,0-0.111l2.295-13.021c0-0.056,0.028-0.112,0.028-0.168c0-0.084-0.028-0.112-0.056-0.112
	c-0.057,0-0.141,0.084-0.196,0.168l-3.612,5.349c-0.195,0.308-0.615,0.476-0.979,0.476H8.904c-0.364,0-0.7-0.168-0.812-0.476
	l-1.793-5.349C6.272,13.884,6.244,13.8,6.188,13.8c-0.028,0-0.084,0.084-0.112,0.28L3.78,27.101c-0.056,0.279-0.309,0.56-0.561,0.56
	H0.392C0.168,27.66,0,27.548,0,27.324c0-0.028,0-0.056,0-0.084L3.387,7.977C3.5,7.36,4.088,6.856,4.704,6.856H6.86
	c0.448,0,0.813,0.28,0.924,0.672l2.717,8.568c0.084,0.252,0.111,0.392,0.223,0.392c0.113,0,0.225-0.14,0.393-0.392l5.74-8.568
	c0.252-0.392,0.699-0.672,1.148-0.672h2.436c0.561,0,0.951,0.392,0.951,0.924C21.391,7.836,21.364,7.92,21.364,7.977z"/>
<path class="mul" d="M37.295,12.456l-1.568,8.933c-1.063,6.104-5.348,6.495-7.531,6.495h-0.168c-1.568,0-5.32-0.672-5.32-5.235
	c0-0.532,0.057-1.148,0.168-1.792l1.484-8.4c0.056-0.308,0.308-0.588,0.615-0.588h2.633c0.279,0,0.447,0.224,0.447,0.476
	c0,0.057,0,0.084,0,0.112l-1.539,8.652c-0.112,0.588-0.141,1.092-0.141,1.512c0,1.596,0.729,2.072,2.213,2.072h0.168
	c1.68,0,2.799-0.7,3.303-3.584l1.541-8.652c0.056-0.308,0.308-0.588,0.615-0.588h2.633c0.279,0,0.447,0.224,0.447,0.476
	C37.295,12.4,37.295,12.428,37.295,12.456z"/>
<path class="mul" d="M45.611,6.912l-3.556,20.16c-0.057,0.308-0.336,0.588-0.645,0.588h-2.604c-0.28,0-0.448-0.224-0.448-0.476
	c0-0.057,0-0.084,0-0.112l3.556-20.16c0.057-0.308,0.336-0.56,0.645-0.56h2.604c0.28,0,0.448,0.195,0.448,0.447
	C45.611,6.856,45.611,6.884,45.611,6.912z"/>
<path class="pang" d="M63.027,13.101l-0.056,0.252c-1.176,5.319-4.957,6.552-9.213,6.552c-0.728,0-1.819-0.084-2.463-0.112
	l-1.289,7.309c-0.056,0.308-0.336,0.56-0.644,0.56h-2.8c-0.28,0-0.448-0.196-0.448-0.448c0-0.027,0-0.056,0-0.084v-0.027
	l3.388-19.265c0.112-0.56,0.448-0.756,1.036-0.84c1.484-0.224,3.5-0.364,5.544-0.364c4.424,0,7.028,1.765,7.028,5.04
	c0,0.141,0,0.309,0,0.448C63.111,12.428,63.111,12.765,63.027,13.101z M55.523,9.853c-0.589,0-2.017,0.056-2.521,0.111l-1.176,6.664
	c0.448,0.028,2.016,0.084,2.492,0.084c2.968,0,4.313-1.26,4.788-3.359l0.056-0.252c0.084-0.364,0.112-0.673,0.112-0.952
	C59.275,10.44,58.127,9.853,55.523,9.853z"/>
<path class="pang" d="M78.455,13.156L76.13,26.4c-0.084,0.42-0.224,0.588-0.896,0.756c-1.82,0.448-3.948,0.728-5.74,0.728
	c-3.809,0-5.6-2.268-5.6-5.432c0-0.504,0.056-1.036,0.14-1.596l0.364-2.156c0.812-4.844,3.443-7.028,7.951-7.028
	c1.793,0,3.836,0.28,5.488,0.729c0.504,0.14,0.645,0.28,0.645,0.532C78.483,12.988,78.483,13.072,78.455,13.156z M71.819,14.696
	c-2.408,0-3.305,1.568-3.725,4.004l-0.363,2.156c-0.112,0.616-0.168,1.147-0.168,1.624c0,1.54,0.644,2.38,2.464,2.38
	c1.008,0,2.155-0.084,2.716-0.196l1.708-9.771C73.947,14.78,72.827,14.696,71.819,14.696z"/>
<path class="pang" d="M94.106,17.664l-1.652,9.408c-0.056,0.308-0.336,0.588-0.644,0.588h-2.632c-0.28,0-0.42-0.224-0.42-0.476
	c0-0.028,0-0.084,0-0.112l1.707-9.688c0.057-0.363,0.113-0.699,0.113-1.035c0-0.896-0.365-1.597-1.736-1.597h-1.568
	c-1.624,0-2.016,0.7-2.352,2.632l-1.709,9.688c-0.055,0.308-0.336,0.588-0.644,0.588h-2.632c-0.279,0-0.42-0.224-0.42-0.476
	c0-0.028,0-0.084,0-0.112l1.708-9.688c0.756-4.256,2.353-5.712,6.608-5.712h1.455c3.192,0,4.928,2.044,4.928,4.761
	C94.217,16.824,94.19,17.244,94.106,17.664z"/>
<path class="pang" d="M110.906,13.156l-2.548,14.448c-0.729,4.088-2.408,5.655-7.279,5.655c-2.717,0-4.453-0.447-5.125-0.672
	c-0.308-0.111-0.476-0.224-0.476-0.504c0-0.028,0.028-0.112,0.028-0.168l0.279-1.483c0.057-0.309,0.309-0.477,0.616-0.477
	c0,0,0.028,0,0.056,0c1.232,0.112,3.836,0.336,5.125,0.336c2.127,0,2.855-0.616,3.08-2.492l0.027-0.224
	c-0.868,0.168-1.736,0.28-2.548,0.28c-3.248,0-5.796-1.513-5.796-5.292c0-0.532,0.027-1.092,0.14-1.708L96.85,18.7
	c0.896-5.236,3.443-7.028,7.951-7.028c1.793,0,4.005,0.336,5.488,0.729c0.42,0.112,0.645,0.224,0.645,0.56
	C110.934,13.017,110.906,13.072,110.906,13.156z M104.27,14.696c-2.296,0-3.275,1.315-3.725,4.004l-0.363,2.156
	c-0.112,0.672-0.196,1.26-0.196,1.764c0,1.484,0.616,2.24,2.492,2.24c0.672,0,1.903-0.112,2.716-0.225l1.708-9.688
	C106.398,14.836,105.278,14.696,104.27,14.696z"/>
</g>

<g id="group_coupon">	
<path class="coupon" d="M116.052,23.204l11.753,2.073l15.85-11.1L133.729,0l-15.982,11.192L116.052,23.204z M124.646,16.924
	c0.844,1.205,0.552,2.862-0.653,3.705c-1.203,0.843-2.862,0.551-3.705-0.653c-0.842-1.203-0.551-2.862,0.653-3.706
	C122.145,15.428,123.803,15.72,124.646,16.924z"/>
</g>	
</svg>
