<?xml version="1.0" encoding="utf-8"?>
<!-- Generator: Adobe Illustrator 15.0.0, SVG Export Plug-In . SVG Version: 6.00 Build 0)  -->
<!DOCTYPE svg PUBLIC "-//W3C//DTD SVG 1.0//EN" "http://www.w3.org/TR/2001/REC-SVG-20010904/DTD/svg10.dtd">
<svg version="1.0" id="레이어_1" xmlns="http://www.w3.org/2000/svg" xmlns:xlink="http://www.w3.org/1999/xlink" x="0px"
	 y="0px" width="140px" height="160px" viewBox="0 0 140 160" enable-background="new 0 0 140 160" xml:space="preserve">

	<style type="text/css">
		<![CDATA[	
		#group_coupon{ 				/*쿠폰 아이콘*/
			fill:rgba(255,100,0,0.2);			/*체움색상*/
		}

		#bg_rect{
			fill:url(#SVGID_1_);
		}
      ]]>
	</style>

<linearGradient id="SVGID_1_" gradientUnits="userSpaceOnUse" x1="70.0005" y1="160" x2="70.0005" y2="4.882813e-004">
	<stop  offset="0" style="stop-color:#B03B1E"/>
	<stop  offset="1" style="stop-color:#BC5419"/>
</linearGradient>


<path id="bg_rect" d="M140,147c0,7.18-5.82,13-13,13H13c-7.18,0-13-5.82-13-13V13C0,5.82,5.82,0,13,0h114
	c7.18,0,13,5.82,13,13V147z"/>

<g id="group_coupon" transform="translate(10,-40) scale(1.2,1.2)">
	<path d="M0,147.083l68.241,13.138l92.028-70.359L102.637,0L9.844,70.941L0,147.083z M49.904,107.274
		c4.899,7.638,3.204,18.143-3.793,23.484c-6.986,5.346-16.62,3.495-21.513-4.138c-4.894-7.626-3.204-18.141,3.793-23.491
		C35.376,97.791,45.005,99.642,49.904,107.274z"/>
</g>

</svg>
