<?xml version="1.0" encoding="utf-8"?>
<!-- team coForward  :  drawing by Kim eun yung / coding by Na!-->
<!DOCTYPE svg PUBLIC "-//W3C//DTD SVG 1.0//EN" "http://www.w3.org/TR/2001/REC-SVG-20010904/DTD/svg10.dtd">
<svg version="1.0" xmlns="http://www.w3.org/2000/svg" xmlns:xlink="http://www.w3.org/1999/xlink" x="0px"
	 y="0px" width="15px" height="15px" viewBox="0 0 15 15" enable-background="new 0 0 15 15" xml:space="preserve">

<style type="text/css">
	<![CDATA[
	#icon_bg{				/*배경*/
		fill:#99AEC8;		/*체움색상*/
	}
	#icon_box{				/*상자 아이콘*/
		fill:#FFFFFF;		/*체움색상*/
	}
  ]]>
</style> 



<path id="icon_bg" fill="#FF0000" d="M15,13c0,1.104-0.896,2-2,2H2c-1.104,0-2-0.896-2-2V2c0-1.104,0.896-2,2-2h11c1.104,0,2,0.896,2,2V13z"/>

<g id="icon_box">
	<rect x="3" y="5" width="4" height="3"/>
	<rect x="6" y="4" width="1" height="1"/>
	<rect x="8" y="4" width="1" height="1"/>
	<rect x="4" y="3" width="2" height="1"/>
	<rect x="9" y="3" width="2" height="1"/>
	<rect x="8" y="5" width="4" height="3"/>
	<rect x="3" y="9" width="4" height="3"/>
	<rect x="8" y="9" width="4" height="3"/>
</g>
</svg>
