<?xml version="1.0" encoding="utf-8"?>
<!-- Generator: Adobe Illustrator 15.0.0, SVG Export Plug-In . SVG Version: 6.00 Build 0)  -->
<!DOCTYPE svg PUBLIC "-//W3C//DTD SVG 1.0//EN" "http://www.w3.org/TR/2001/REC-SVG-20010904/DTD/svg10.dtd">
<svg version="1.0" id="레이어_1" xmlns="http://www.w3.org/2000/svg" xmlns:xlink="http://www.w3.org/1999/xlink" x="0px"
	 y="0px" width="50px" height="50px" viewBox="0 0 50 50" enable-background="new 0 0 50 50" xml:space="preserve">
<g>
	<path fill="#F68001" d="M33.007,37.578H16.992c-0.548,0-0.992-0.443-0.992-0.991v-8.864c0-4.965,4.037-9.003,8.999-9.003
		c4.964,0,9.001,4.038,9.001,9.003v8.864C34,37.135,33.555,37.578,33.007,37.578z M17.984,35.594h14.031v-7.871
		c0-3.87-3.146-7.018-7.017-7.018c-3.868,0-7.015,3.147-7.015,7.018V35.594z"/>
	<path fill="#F68001" d="M30.211,22.092c-0.547,0-0.992-0.445-0.992-0.991v-2.479c0-2.326-1.893-4.217-4.219-4.217
		s-4.219,1.891-4.219,4.217v2.479c0,0.546-0.444,0.991-0.991,0.991c-0.549,0-0.992-0.445-0.992-0.991v-2.479
		c0-3.42,2.781-6.201,6.202-6.201c3.419,0,6.203,2.781,6.203,6.201v2.479C31.203,21.647,30.757,22.092,30.211,22.092z"/>
	<circle fill="#F68001" cx="25" cy="27.13" r="2.52"/>
	<path fill="#F68001" d="M26.081,31.833c0,0.384-0.486,0.697-1.081,0.697l0,0c-0.596,0-1.08-0.313-1.08-0.697v-3.646
		c0-0.384,0.484-0.697,1.08-0.697l0,0c0.595,0,1.081,0.313,1.081,0.697V31.833z"/>
</g>
</svg>
