<?xml version="1.0" encoding="utf-8"?>
<!-- Generator: Adobe Illustrator 15.0.0, SVG Export Plug-In . SVG Version: 6.00 Build 0)  -->
<!DOCTYPE svg PUBLIC "-//W3C//DTD SVG 1.0//EN" "http://www.w3.org/TR/2001/REC-SVG-20010904/DTD/svg10.dtd">
<svg version="1.0" id="레이어_1" xmlns="http://www.w3.org/2000/svg" xmlns:xlink="http://www.w3.org/1999/xlink" x="0px"
	 y="0px" width="160px" height="160px" viewBox="0 0 160 160" enable-background="new 0 0 160 160" xml:space="preserve">

	 <style type="text/css">
		<![CDATA[
		#group_text01{			/*[오늘은] 텍스트 그룹영역*/
			fill:#FFFFFF;
		}
		
		#group_text02{			/*[뭘] 텍스트 그룹영역*/
			fill:#FFFFFF;
		}
		
		#group_text03{			/*[파니] 텍스트 그룹영역*/
			fill:#FFFFFF;
		}
		
		#group_text04{			/*[?] 텍스트 그룹영역*/
			fill:rgba(255,255,225,0.4);
		}

      ]]>
	</style>

<g id="group_text01" transform="translate(20,35) scale(1.2,1.2)">
	<path d="M11.101,30.832c0.2-0.04,0.415-0.064,0.646-0.075c0.229-0.01,0.439,0.005,0.63,0.045
		c0.189,0.04,0.35,0.11,0.48,0.21c0.13,0.1,0.204,0.23,0.225,0.39c0.02,0.3-0.155,0.56-0.525,0.78c-0.37,0.22-0.785,0.4-1.244,0.54
		c-1.461,0.4-2.811,0.715-4.051,0.945c-1.24,0.23-2.5,0.416-3.779,0.555c-0.48,0.06-0.886,0.025-1.216-0.105
		c-0.329-0.13-0.524-0.315-0.585-0.555c-0.04-0.22-0.02-0.41,0.061-0.57c0.079-0.16,0.189-0.29,0.33-0.39
		c0.14-0.1,0.289-0.175,0.45-0.225c0.159-0.05,0.3-0.075,0.42-0.075c0.319-0.04,0.635-0.08,0.944-0.12
		c0.311-0.04,0.625-0.08,0.945-0.12c0.08-0.36,0.15-0.799,0.21-1.32c0.06-0.52,0.109-1.065,0.15-1.635
		c0.039-0.57,0.069-1.135,0.09-1.695c0.02-0.56,0.03-1.06,0.03-1.5c-0.161,0.041-0.261,0.06-0.301,0.06
		c-0.68,0.14-1.285,0.09-1.814-0.15c-0.53-0.24-0.855-0.69-0.976-1.35c-0.06-0.34-0.05-0.695,0.03-1.065
		c0.08-0.37,0.225-0.735,0.436-1.095c0.21-0.36,0.469-0.705,0.779-1.035s0.655-0.625,1.035-0.885c0.4-0.26,0.77-0.36,1.11-0.3
		c0.34,0.08,0.529,0.27,0.569,0.57c0.101,0,0.195,0.005,0.285,0.015c0.09,0.01,0.185,0.015,0.285,0.015
		c0.58,0.06,1.075,0.24,1.485,0.54c0.409,0.3,0.614,0.71,0.614,1.23c0,0.4-0.145,0.84-0.435,1.32s-0.705,0.91-1.245,1.29
		c0.02,0.44,0.03,0.955,0.03,1.545c0,0.59-0.015,1.19-0.045,1.8c-0.03,0.61-0.065,1.206-0.105,1.785c-0.04,0.581-0.1,1.09-0.18,1.53
		C8.371,31.473,9.781,31.172,11.101,30.832z M4.321,23.872c0.079,0.24,0.27,0.33,0.569,0.27c0.301-0.06,0.625-0.18,0.976-0.36
		c0.35-0.18,0.66-0.39,0.93-0.63c0.271-0.24,0.415-0.43,0.436-0.57c0.02-0.12-0.021-0.214-0.12-0.285
		c-0.101-0.07-0.216-0.13-0.346-0.18c-0.13-0.05-0.27-0.085-0.42-0.105c-0.149-0.02-0.274-0.04-0.375-0.06
		c-0.2-0.02-0.33-0.12-0.39-0.3c-0.16,0.16-0.33,0.335-0.51,0.525c-0.181,0.19-0.335,0.38-0.465,0.57
		c-0.131,0.19-0.226,0.385-0.285,0.585C4.261,23.532,4.261,23.712,4.321,23.872z"/>
	<path d="M24.601,24.142c-0.58,0.12-1.279,0.255-2.1,0.405c-0.82,0.15-1.675,0.3-2.564,0.45
		c-0.891,0.15-1.785,0.295-2.686,0.435c-0.9,0.14-1.73,0.25-2.49,0.33c-0.18,0.02-0.375-0.05-0.585-0.21
		c-0.21-0.16-0.335-0.35-0.375-0.57c-0.04-0.18-0.005-0.35,0.105-0.51c0.109-0.16,0.255-0.26,0.435-0.3
		c1.76-0.4,3.49-0.73,5.19-0.99c1.699-0.26,3.43-0.439,5.189-0.54c0.16,0.021,0.315,0.056,0.466,0.105
		c0.149,0.05,0.225,0.215,0.225,0.495c0,0.26-0.096,0.465-0.285,0.615C24.936,24.007,24.761,24.103,24.601,24.142z M17.312,16.342
		c-0.101,0.46-0.211,0.985-0.33,1.575c-0.12,0.59-0.2,1.125-0.24,1.605c0.34-0.08,0.725-0.18,1.155-0.3
		c0.43-0.12,0.864-0.25,1.305-0.39c0.439-0.14,0.875-0.285,1.305-0.435c0.43-0.15,0.825-0.285,1.186-0.405
		c0.359-0.1,0.689-0.14,0.989-0.12c0.301,0.021,0.5,0.19,0.601,0.51c0.06,0.22,0.01,0.41-0.15,0.57c-0.16,0.16-0.44,0.35-0.84,0.57
		c-1.04,0.46-1.995,0.851-2.865,1.17s-1.795,0.6-2.774,0.84c-0.32,0.08-0.596,0.09-0.825,0.03c-0.23-0.06-0.42-0.165-0.57-0.315
		c-0.149-0.15-0.26-0.334-0.33-0.555s-0.095-0.45-0.075-0.69c0.08-0.8,0.186-1.59,0.315-2.37c0.13-0.78,0.285-1.56,0.465-2.34
		c0.02-0.06,0.09-0.15,0.21-0.27c0.12-0.12,0.35-0.15,0.69-0.09c0.24,0.041,0.454,0.195,0.645,0.465
		C17.366,15.667,17.411,15.982,17.312,16.342z M23.251,29.212c-0.18,0.14-0.385,0.345-0.615,0.615
		c-0.229,0.27-0.47,0.555-0.72,0.855c-0.25,0.3-0.49,0.59-0.72,0.87c-0.23,0.28-0.436,0.51-0.615,0.69
		c0.56-0.04,1.135-0.025,1.725,0.045c0.59,0.07,1.006,0.175,1.245,0.315c0.36,0.221,0.556,0.51,0.585,0.87
		c0.03,0.36-0.095,0.77-0.375,1.23c-0.2,0.38-0.42,0.72-0.66,1.02c-0.239,0.3-0.484,0.595-0.734,0.885s-0.495,0.59-0.735,0.9
		c-0.24,0.31-0.46,0.665-0.66,1.064c0.8-0.16,1.665-0.364,2.596-0.614c0.93-0.25,1.725-0.495,2.385-0.735
		c0.279-0.1,0.524-0.125,0.735-0.075c0.21,0.05,0.375,0.135,0.494,0.255c0.16,0.16,0.235,0.379,0.226,0.66
		c-0.011,0.28-0.155,0.49-0.436,0.63c-0.859,0.46-1.859,0.865-3,1.215c-1.14,0.351-2.26,0.625-3.359,0.825
		c-0.84,0.16-1.466,0.025-1.875-0.404c-0.41-0.431-0.445-1.006-0.105-1.726c0.26-0.5,0.521-0.935,0.78-1.305s0.525-0.72,0.795-1.05
		s0.545-0.66,0.825-0.99c0.279-0.33,0.59-0.725,0.93-1.185c-0.26-0.02-0.545-0.03-0.854-0.03c-0.311,0-0.615,0.011-0.915,0.03
		c-0.301,0.02-0.581,0.045-0.841,0.075c-0.26,0.03-0.46,0.045-0.6,0.045c-0.18,0-0.34-0.05-0.479-0.15
		c-0.141-0.1-0.245-0.235-0.315-0.405s-0.095-0.365-0.075-0.585c0.02-0.22,0.11-0.44,0.271-0.66c0.14-0.18,0.34-0.415,0.6-0.705
		c0.26-0.29,0.529-0.589,0.811-0.9c0.279-0.31,0.56-0.615,0.84-0.915c0.279-0.3,0.52-0.57,0.72-0.81
		c-0.46,0.021-0.985,0.101-1.575,0.24c-0.59,0.14-1.085,0.26-1.484,0.36c-0.44,0.12-0.761,0.06-0.961-0.18
		c-0.199-0.24-0.31-0.47-0.329-0.69c-0.021-0.22,0.06-0.405,0.239-0.555c0.181-0.15,0.391-0.265,0.63-0.345
		c1.44-0.48,2.84-0.7,4.2-0.66c0.46,0.04,0.814,0.13,1.065,0.27c0.25,0.14,0.425,0.31,0.524,0.51c0.12,0.22,0.16,0.445,0.12,0.675
		C23.511,28.917,23.411,29.092,23.251,29.212z"/>
		
	<path d="M28.5,29.092c-0.38,0.04-0.755,0.035-1.125-0.015c-0.37-0.05-0.604-0.274-0.705-0.675
		c-0.02-0.26,0.101-0.485,0.36-0.675c0.26-0.189,0.62-0.345,1.08-0.465c1.74-0.42,3.345-0.755,4.814-1.005
		c1.471-0.25,2.926-0.385,4.365-0.405c0.181,0.041,0.325,0.11,0.436,0.21c0.109,0.101,0.175,0.21,0.194,0.33
		c0.021,0.22-0.035,0.41-0.165,0.57s-0.395,0.27-0.795,0.33c-0.68,0.14-1.33,0.266-1.949,0.375c-0.621,0.11-1.261,0.235-1.921,0.375
		c-0.659,0.14-1.36,0.291-2.1,0.45C30.25,28.652,29.42,28.852,28.5,29.092z M32.641,19.342c0.34-0.1,0.645-0.085,0.915,0.045
		c0.27,0.13,0.454,0.355,0.555,0.675c0.14,0.4,0.195,0.8,0.165,1.2c-0.03,0.4-0.125,0.791-0.285,1.17
		c-0.16,0.38-0.38,0.735-0.66,1.065s-0.61,0.615-0.99,0.855c-0.5,0.28-0.944,0.396-1.335,0.345c-0.39-0.05-0.645-0.115-0.765-0.195
		c-0.34-0.2-0.58-0.47-0.72-0.81c-0.141-0.34-0.21-0.715-0.21-1.125c0-0.41,0.055-0.82,0.165-1.23
		c0.109-0.41,0.255-0.775,0.435-1.095c0.1-0.16,0.26-0.395,0.48-0.705c0.22-0.31,0.46-0.575,0.72-0.795
		c0.24-0.2,0.495-0.34,0.765-0.42c0.271-0.08,0.505-0.06,0.705,0.06c0.2,0.14,0.285,0.29,0.255,0.45
		C32.806,18.993,32.74,19.162,32.641,19.342z M32.221,29.062c0.199,0.041,0.369,0.2,0.51,0.48c0.14,0.281,0.17,0.65,0.09,1.11
		c-0.04,0.2-0.085,0.45-0.135,0.75c-0.051,0.3-0.101,0.605-0.15,0.915s-0.095,0.61-0.135,0.9c-0.04,0.29-0.07,0.535-0.09,0.735
		c1.02-0.1,1.995-0.235,2.925-0.405s1.825-0.375,2.685-0.615c0.28-0.1,0.55-0.109,0.811-0.03c0.26,0.08,0.439,0.2,0.54,0.36
		c0.079,0.12,0.069,0.305-0.03,0.555c-0.101,0.25-0.21,0.395-0.33,0.435c-0.479,0.28-1.01,0.52-1.59,0.72
		c-0.58,0.2-1.175,0.37-1.785,0.51s-1.215,0.255-1.814,0.345c-0.601,0.09-1.16,0.155-1.681,0.195
		c-0.439,0.041-0.785,0.005-1.035-0.105c-0.25-0.109-0.435-0.255-0.555-0.435c-0.12-0.18-0.19-0.39-0.21-0.63
		c-0.021-0.24-0.021-0.48,0-0.72c0.02-0.26,0.055-0.575,0.105-0.945c0.049-0.37,0.119-0.754,0.21-1.155
		c0.09-0.4,0.189-0.805,0.3-1.215c0.109-0.41,0.234-0.785,0.375-1.125c0.079-0.2,0.22-0.365,0.42-0.495
		C31.85,29.067,32.04,29.022,32.221,29.062z M32.641,21.082c0.06-0.28,0.055-0.575-0.016-0.885s-0.155-0.445-0.255-0.405
		c-0.18,0.14-0.355,0.351-0.524,0.63c-0.171,0.28-0.315,0.57-0.436,0.87c-0.12,0.3-0.2,0.585-0.24,0.855
		c-0.04,0.27-0.029,0.476,0.03,0.615c0.42-0.16,0.74-0.405,0.96-0.735S32.54,21.382,32.641,21.082z"/>
</g>

<g id="group_text02" transform="translate(-5,85) scale(1.2,1.2)">	
	<path d="M52.032,19.549c-0.185,0.927-0.347,1.746-0.486,2.457c-0.139,0.711-0.263,1.398-0.37,2.062
		c-0.109,0.665-0.209,1.329-0.302,1.993c-0.093,0.665-0.186,1.414-0.278,2.248c-0.062,0.526-0.239,0.866-0.532,1.02
		c-0.294,0.155-0.564,0.232-0.812,0.232c-0.247-0.03-0.549-0.201-0.903-0.51c-0.355-0.309-0.503-0.788-0.44-1.437
		c0.062-0.834,0.131-1.576,0.209-2.225c0.076-0.649,0.162-1.258,0.255-1.831c0.092-0.571,0.192-1.135,0.301-1.691
		c0.107-0.556,0.224-1.159,0.348-1.808c-0.434,0.031-0.935,0.109-1.506,0.232c-0.572,0.124-1.175,0.271-1.808,0.44
		c-0.634,0.17-1.244,0.347-1.831,0.533s-1.112,0.371-1.575,0.556c-0.402,0.155-0.842,0.271-1.321,0.348
		c-0.479,0.078-0.856-0.1-1.135-0.533c-0.031-0.062-0.078-0.169-0.14-0.324c-0.062-0.154-0.085-0.324-0.069-0.51
		s0.077-0.386,0.186-0.603c0.108-0.216,0.302-0.417,0.579-0.603c0.371-0.216,0.966-0.471,1.784-0.765
		c0.818-0.293,1.699-0.579,2.642-0.857c0.942-0.278,1.861-0.502,2.758-0.672c0.896-0.169,1.622-0.239,2.178-0.208
		c0.557,0.031,0.988,0.139,1.298,0.325c0.309,0.185,0.548,0.394,0.718,0.625c0.17,0.231,0.263,0.486,0.278,0.765
		C52.071,19.086,52.063,19.334,52.032,19.549z M43.506,3.839c-0.031,1.051-0.047,1.955-0.047,2.711c0,0.757,0.008,1.476,0.023,2.155
		c0.016,0.68,0.038,1.375,0.069,2.085c0.03,0.711,0.062,1.545,0.093,2.502c0.03,0.772,0.016,1.313-0.046,1.622
		c-0.063,0.31-0.232,0.495-0.51,0.556c-0.434,0.063-0.843-0.123-1.229-0.556c-0.387-0.432-0.642-0.973-0.765-1.622
		c-0.155-0.958-0.271-1.815-0.348-2.572c-0.077-0.757-0.139-1.506-0.186-2.248c-0.046-0.742-0.062-1.513-0.046-2.317
		c0.015-0.803,0.054-1.715,0.116-2.734c0.03-0.463,0.238-0.772,0.625-0.927c0.386-0.154,0.702-0.201,0.95-0.139
		c0.278,0.062,0.571,0.216,0.881,0.463C43.397,3.067,43.536,3.407,43.506,3.839z M51.848,6.157c-0.155,1.02-0.472,1.962-0.95,2.827
		c-0.479,0.865-1.027,1.73-1.646,2.595c0.649-0.247,1.352-0.463,2.108-0.649c0.757-0.185,1.568-0.308,2.434-0.371
		c0.37-0.03,0.726-0.015,1.065,0.046c0.34,0.062,0.571,0.216,0.695,0.463c0.093,0.248,0.03,0.595-0.186,1.042
		c-0.216,0.448-0.695,0.75-1.437,0.904c-0.618,0.155-1.43,0.387-2.433,0.695c-1.005,0.309-2.155,0.726-3.453,1.251
		c-0.309,0.124-0.703,0.17-1.182,0.139c-0.479-0.03-0.889-0.169-1.228-0.417c-0.341-0.309-0.51-0.679-0.51-1.112
		c0-0.432,0.123-0.834,0.37-1.205c0.278-0.432,0.618-0.927,1.02-1.483s0.78-1.127,1.136-1.714c0.354-0.587,0.664-1.166,0.927-1.738
		c0.262-0.572,0.394-1.089,0.394-1.553c0-0.186-0.123-0.301-0.37-0.348c-0.248-0.046-0.533-0.062-0.857-0.046
		c-0.324,0.016-0.68,0.063-1.066,0.139c-0.387,0.078-0.718,0.147-0.996,0.208c-0.247,0.063-0.556,0.008-0.927-0.162
		c-0.371-0.169-0.572-0.487-0.603-0.95c0-0.278,0.085-0.517,0.255-0.718c0.17-0.201,0.332-0.348,0.486-0.44
		c0.711-0.433,1.507-0.688,2.387-0.765c0.881-0.077,1.723,0.023,2.526,0.301c0.803,0.31,1.358,0.742,1.668,1.298
		C51.785,4.952,51.909,5.539,51.848,6.157z M62.97,8.288c0.03-0.525,0.146-0.927,0.348-1.205c0.2-0.278,0.486-0.401,0.857-0.371
		c0.123,0,0.277,0.031,0.463,0.093c0.186,0.063,0.371,0.155,0.557,0.278c0.185,0.124,0.339,0.301,0.463,0.533
		c0.123,0.232,0.201,0.502,0.231,0.811c0.093,1.514,0.17,2.835,0.232,3.962c0.062,1.128,0.107,2.178,0.139,3.151
		c0.03,0.973,0.038,1.916,0.023,2.827c-0.016,0.912-0.055,1.893-0.116,2.943c-0.031,0.309-0.186,0.603-0.463,0.88
		c-0.278,0.278-0.588,0.417-0.927,0.417c-0.248,0-0.457-0.085-0.626-0.255c-0.17-0.17-0.302-0.371-0.394-0.603
		c-0.093-0.232-0.163-0.471-0.209-0.718c-0.046-0.247-0.069-0.464-0.069-0.649v-2.039c-1.576,0.525-2.966,1.059-4.171,1.599
		c-1.205,0.541-2.441,1.12-3.708,1.738c-0.433,0.248-0.903,0.355-1.413,0.325s-0.811-0.309-0.903-0.834
		c-0.063-0.278,0.046-0.648,0.324-1.112c0.278-0.463,0.726-0.864,1.344-1.205c0.741-0.433,1.444-0.818,2.108-1.159
		c0.664-0.339,1.328-0.649,1.993-0.927c0.664-0.278,1.344-0.533,2.039-0.765c0.695-0.232,1.46-0.456,2.294-0.672
		c-0.063-1.05-0.132-2.101-0.209-3.151C63.101,11.131,63.031,9.833,62.97,8.288z M66.26,27.891c0.03,0.402-0.116,0.842-0.44,1.321
		c-0.324,0.479-0.718,0.95-1.182,1.414c-0.463,0.463-0.919,0.88-1.367,1.251c-0.448,0.371-0.765,0.634-0.95,0.788
		c0.587-0.03,1.159,0.031,1.715,0.186c0.557,0.155,1.012,0.394,1.367,0.718c0.355,0.324,0.571,0.718,0.649,1.182
		c0.076,0.463-0.039,0.973-0.348,1.529c-0.557,0.958-1.129,1.799-1.715,2.526c-0.588,0.726-1.236,1.46-1.946,2.201
		c1.451,0.03,2.935-0.116,4.448-0.44s2.889-0.657,4.125-0.996c0.433-0.124,0.779-0.162,1.043-0.116
		c0.262,0.047,0.455,0.131,0.579,0.255c0.34,0.34,0.293,0.818-0.14,1.437c-0.309,0.494-0.942,0.935-1.899,1.321
		c-0.958,0.386-2.032,0.71-3.221,0.973c-1.19,0.263-2.395,0.456-3.615,0.579s-2.247,0.154-3.082,0.093
		c-0.927-0.031-1.621-0.355-2.085-0.973c-0.217-0.278-0.341-0.618-0.371-1.02c-0.031-0.402,0.093-0.772,0.371-1.112
		c0.803-0.958,1.629-1.885,2.479-2.78c0.85-0.896,1.536-1.73,2.063-2.503c-0.434-0.093-1.02-0.085-1.762,0.023
		c-0.741,0.109-1.452,0.209-2.132,0.301c-0.247,0.031-0.563,0.008-0.949-0.069c-0.387-0.077-0.673-0.285-0.857-0.625
		c-0.155-0.309-0.179-0.626-0.07-0.95s0.286-0.579,0.533-0.765c0.401-0.309,0.904-0.726,1.506-1.251
		c0.603-0.525,1.189-1.058,1.762-1.599c0.571-0.54,1.065-1.042,1.482-1.506c0.417-0.464,0.626-0.803,0.626-1.02
		c0-0.185-0.132-0.285-0.394-0.301c-0.264-0.016-0.596,0.039-0.997,0.162c-0.401,0.124-0.842,0.271-1.32,0.44
		c-0.479,0.17-0.935,0.348-1.367,0.533c-0.495,0.186-0.981,0.193-1.46,0.023c-0.479-0.169-0.796-0.517-0.95-1.042
		c-0.063-0.371,0.03-0.687,0.278-0.95c0.247-0.262,0.54-0.486,0.881-0.672c0.957-0.556,2.062-0.934,3.313-1.135
		c1.251-0.201,2.37-0.146,3.359,0.162c0.587,0.186,1.058,0.495,1.413,0.927C65.989,26.841,66.197,27.335,66.26,27.891z"/>
</g>


<g id="group_text03" transform="translate(15,90)">	
	<path d="M81.825,16.522c-0.054,0.507-0.267,0.82-0.64,0.94c-0.374,0.12-0.773,0.18-1.2,0.18
		c-0.934,0-2.04,0.087-3.319,0.26c-1.28,0.174-2.721,0.527-4.32,1.06c-0.374,0.16-0.773,0.14-1.2-0.06
		c-0.427-0.2-0.693-0.393-0.8-0.58c-0.134-0.213-0.194-0.493-0.18-0.84c0.013-0.347,0.166-0.586,0.46-0.72
		c1.52-0.56,3.086-0.973,4.699-1.24c1.613-0.266,3.381-0.293,5.301-0.08c0.373,0.054,0.666,0.173,0.88,0.36
		C81.719,15.989,81.825,16.229,81.825,16.522z M74.905,29.002c-0.134,0.054-0.38-0.006-0.739-0.18
		c-0.36-0.173-0.607-0.393-0.74-0.66c-0.267-0.56-0.454-1.193-0.561-1.9c-0.106-0.706-0.167-1.42-0.18-2.14
		c-0.014-0.72,0.013-1.406,0.08-2.06c0.066-0.653,0.153-1.206,0.26-1.66c0.134-0.4,0.333-0.68,0.601-0.84
		c0.266-0.16,0.493-0.226,0.68-0.2c0.213,0.027,0.406,0.134,0.58,0.32c0.173,0.187,0.26,0.4,0.26,0.64c0,0.374-0.02,0.874-0.06,1.5
		c-0.04,0.627-0.061,1.28-0.061,1.96s0.026,1.333,0.08,1.96c0.054,0.627,0.187,1.14,0.4,1.54c0.213,0.4,0.232,0.774,0.06,1.12
		C75.392,28.749,75.172,28.949,74.905,29.002z M80.306,20.762c0.453,0.107,0.68,0.314,0.68,0.62c0,0.307,0,0.74,0,1.3
		c0,0.294-0.06,0.72-0.18,1.28c-0.12,0.56-0.273,1.167-0.46,1.82c-0.187,0.654-0.394,1.3-0.62,1.94s-0.46,1.174-0.7,1.6
		c0.613-0.133,1.16-0.26,1.641-0.38c0.479-0.12,0.939-0.253,1.38-0.4c0.439-0.146,0.886-0.3,1.34-0.46
		c0.453-0.16,0.973-0.36,1.56-0.6c0.293-0.133,0.526-0.113,0.7,0.06c0.173,0.174,0.286,0.314,0.34,0.42
		c0.08,0.24,0.073,0.474-0.02,0.7c-0.094,0.227-0.221,0.434-0.38,0.62c-0.16,0.187-0.348,0.354-0.561,0.5
		c-0.214,0.147-0.399,0.26-0.56,0.34c-1.228,0.614-2.507,1.14-3.84,1.58c-1.334,0.44-2.627,0.794-3.881,1.06
		c-0.399,0.08-0.786,0.114-1.159,0.1c-0.374-0.013-0.667-0.247-0.88-0.7c-0.16-0.346-0.174-0.666-0.04-0.96
		c0.133-0.293,0.306-0.546,0.52-0.76c0.854-0.8,1.593-1.973,2.22-3.52c0.627-1.546,1.167-3.28,1.62-5.2
		c0.08-0.32,0.24-0.573,0.48-0.76C79.745,20.776,80.012,20.709,80.306,20.762z M88.706,27.722c-0.32-0.106-0.574-0.286-0.761-0.54
		c-0.187-0.253-0.307-0.486-0.359-0.7c-0.134-0.693-0.234-1.62-0.301-2.78s-0.1-2.36-0.1-3.6c0-1.24,0.04-2.426,0.12-3.56
		c0.08-1.133,0.187-2.02,0.32-2.66c0.159-0.773,0.466-1.16,0.92-1.16c0.186,0,0.373,0.06,0.56,0.18
		c0.187,0.12,0.347,0.273,0.48,0.46c0.133,0.187,0.239,0.394,0.319,0.62s0.106,0.434,0.08,0.62c-0.106,0.827-0.187,1.734-0.24,2.72
		c-0.054,0.987-0.079,2-0.079,3.04c0.453-0.16,1-0.3,1.64-0.42c0.64-0.12,1.293-0.207,1.96-0.26c0.666-0.053,1.307-0.053,1.92,0
		c0.613,0.054,1.133,0.174,1.56,0.36c0.347,0.16,0.594,0.394,0.74,0.7c0.146,0.307,0.166,0.567,0.061,0.78
		c-0.054,0.134-0.214,0.227-0.48,0.28c-0.267,0.054-0.573,0.067-0.92,0.04c-0.934-0.053-2.014-0.006-3.24,0.14
		s-2.307,0.327-3.239,0.54c0.025,0.774,0.06,1.5,0.1,2.18s0.086,1.3,0.14,1.86c0.026,0.294-0.047,0.594-0.22,0.9
		C89.512,27.769,89.186,27.856,88.706,27.722z"/>

	<path d="M104.546,28.522c-0.399,0.267-0.827,0.44-1.28,0.52c-0.453,0.08-0.906-0.013-1.359-0.28
		c-0.641-0.4-1.154-0.986-1.54-1.76c-0.387-0.773-0.667-1.653-0.84-2.64c-0.174-0.986-0.254-2.026-0.24-3.12
		c0.013-1.093,0.1-2.16,0.26-3.2c0.054-0.213,0.187-0.446,0.4-0.7c0.213-0.253,0.506-0.366,0.88-0.34
		c0.293,0.027,0.613,0.207,0.96,0.54c0.346,0.334,0.493,0.767,0.439,1.3c-0.106,1.2-0.119,2.427-0.04,3.68
		c0.08,1.254,0.24,2.347,0.48,3.28c0.08,0.32,0.253,0.44,0.52,0.36s0.493-0.2,0.681-0.36c0.693-0.56,1.413-1.226,2.16-2
		c0.746-0.773,1.479-1.62,2.199-2.54c0.721-0.92,1.421-1.88,2.101-2.88s1.3-2.02,1.859-3.06c0.054-0.826,0.387-1.306,1-1.44
		c0.267-0.026,0.493,0.02,0.681,0.14c0.187,0.12,0.34,0.28,0.46,0.48c0.12,0.2,0.213,0.407,0.28,0.62
		c0.065,0.214,0.112,0.387,0.14,0.52c0.106,0.854,0.227,1.88,0.36,3.08c0.133,1.2,0.246,2.467,0.34,3.8
		c0.093,1.334,0.16,2.66,0.2,3.98c0.039,1.32,0.046,2.5,0.02,3.54c-0.027,0.454-0.14,0.794-0.34,1.02
		c-0.2,0.227-0.407,0.34-0.62,0.34c-0.48,0-0.84-0.14-1.08-0.42c-0.24-0.28-0.36-0.606-0.36-0.98c0-1.573-0.054-3.293-0.159-5.16
		c-0.107-1.866-0.268-3.76-0.48-5.68c-0.454,0.747-0.994,1.567-1.62,2.46c-0.627,0.894-1.294,1.767-2,2.62
		c-0.707,0.854-1.446,1.66-2.22,2.42C106.013,27.422,105.266,28.042,104.546,28.522z"/>
</g>


<g id="group_text04" transform="translate(-260,-20) scale(3,3)">	
	<path d="M128.466,22.002c-0.348,0.427-0.721,0.827-1.12,1.2c-0.4,0.374-0.768,0.76-1.101,1.16
		s-0.594,0.827-0.779,1.28c-0.188,0.454-0.228,0.974-0.12,1.56c0.186,0.374,0.266,0.66,0.239,0.86c-0.026,0.2-0.133,0.367-0.319,0.5
		c-0.48,0.267-0.96,0.147-1.44-0.36c-0.319-0.346-0.54-0.766-0.66-1.26c-0.119-0.493-0.146-0.986-0.08-1.48
		c0.066-0.493,0.214-0.98,0.44-1.46c0.227-0.48,0.526-0.906,0.9-1.28c0.373-0.373,0.76-0.766,1.159-1.18
		c0.4-0.413,0.761-0.846,1.08-1.3c0.32-0.453,0.561-0.913,0.721-1.38c0.16-0.466,0.199-0.953,0.12-1.46
		c-0.027-0.187-0.134-0.353-0.32-0.5c-0.187-0.146-0.427-0.267-0.72-0.36c-0.294-0.093-0.62-0.146-0.98-0.16
		c-0.36-0.013-0.727,0.034-1.1,0.14c-0.614,0.187-1.147,0.514-1.601,0.98c-0.453,0.467-0.693,0.967-0.72,1.5
		c0.187,0.427,0.173,0.72-0.04,0.88c-0.187,0.134-0.38,0.2-0.58,0.2s-0.38-0.053-0.54-0.16c-0.64-0.64-0.914-1.333-0.82-2.08
		c0.094-0.746,0.381-1.426,0.86-2.04c0.453-0.613,1.033-1.1,1.74-1.46c0.706-0.36,1.473-0.566,2.3-0.62
		c1.04-0.08,2.021,0.1,2.94,0.54s1.553,1.18,1.899,2.22c0.347,1.173,0.347,2.213,0,3.12
		C129.479,20.509,129.025,21.309,128.466,22.002z M127.065,34.402c0.08,0.374,0.026,0.707-0.16,1s-0.434,0.52-0.74,0.68
		c-0.307,0.16-0.627,0.227-0.96,0.2c-0.333-0.026-0.62-0.186-0.859-0.48c-0.16-0.187-0.254-0.4-0.28-0.64
		c-0.027-0.24-0.02-0.493,0.02-0.76c0.04-0.267,0.094-0.52,0.16-0.76c0.066-0.24,0.101-0.453,0.101-0.64
		c0-0.08,0.026-0.173,0.08-0.28c0.053-0.106,0.126-0.193,0.22-0.26c0.093-0.066,0.193-0.1,0.3-0.1s0.227,0.08,0.36,0.24
		c0.373,0.294,0.76,0.594,1.16,0.9C126.865,33.809,127.065,34.109,127.065,34.402z"/>
</g>
</svg>