<?xml version="1.0" encoding="utf-8"?>
<!-- Generator: Adobe Illustrator 15.0.0, SVG Export Plug-In . SVG Version: 6.00 Build 0)  -->
<!DOCTYPE svg PUBLIC "-//W3C//DTD SVG 1.0//EN" "http://www.w3.org/TR/2001/REC-SVG-20010904/DTD/svg10.dtd">
<svg version="1.0" id="레이어_1" xmlns="http://www.w3.org/2000/svg" xmlns:xlink="http://www.w3.org/1999/xlink" x="0px"
	 y="0px" width="190px" height="55.438px" viewBox="-0.25 -1.75 190 55.438" enable-background="new -0.25 -1.75 190 55.438"
	 xml:space="preserve">
<filter  id="AI_그림자_1" filterUnits="objectBoundingBox">
	<feGaussianBlur  stdDeviation="2" in="SourceAlpha" result="blur"></feGaussianBlur>
	<feOffset  dy="4" dx="4" in="blur" result="offsetBlurredAlpha"></feOffset>
	<feMerge>
		<feMergeNode  in="offsetBlurredAlpha"></feMergeNode>
		<feMergeNode  in="SourceGraphic"></feMergeNode>
	</feMerge>
</filter>
<linearGradient id="SVGID_1_" gradientUnits="userSpaceOnUse" x1="294.6602" y1="-323.21" x2="294.6602" y2="-273.21" gradientTransform="matrix(1 0 0 -1 -202.6602 -274.96)">
	<stop  offset="0" style="stop-color:#DD4908"/>
	<stop  offset="1" style="stop-color:#ED9016"/>
</linearGradient>
<path fill="url(#SVGID_1_)" filter="url(#AI_그림자_1)" d="M179.878,18.129L159.999-1.75H8c-3.313,0-6,2.687-6,6v38
	c0,3.313,2.687,6,6,6h151.999l19.879-19.879C182.707,25.543,182.707,20.958,179.878,18.129z M158.75,27.813
	c-2.52,0-4.563-2.043-4.563-4.563c0-2.52,2.043-4.563,4.563-4.563s4.563,2.043,4.563,4.563
	C163.313,25.77,161.27,27.813,158.75,27.813z"/>
<linearGradient id="SVGID_2_" gradientUnits="userSpaceOnUse" x1="224.1602" y1="-323.21" x2="224.1602" y2="-273.21" gradientTransform="matrix(1 0 0 -1 -202.6602 -274.96)">
	<stop  offset="0" style="stop-color:#B13A06"/>
	<stop  offset="1" style="stop-color:#BE7312"/>
</linearGradient>
<path fill="url(#SVGID_2_)" d="M6-1.75c-3.313,0-6,2.687-6,6v38c0,3.313,2.687,6,6,6h37v-50H6z"/>
</svg>
